#tb 0: 1/25
#media_type 0: video
#codec_id 0: rawvideo
#dimensions 0: 192x128
#sar 0: 0/1
0,          0,          0,        1,    36864, 0xb4c5642e
0,          1,          1,        1,    36864, 0x929fd05f
0,          2,          2,        1,    36864, 0x447c9b69
0,          3,          3,        1,    36864, 0xab0712da
0,          4,          4,        1,    36864, 0xd9f69216
0,          5,          5,        1,    36864, 0xec04f6dc
0,          6,          6,        1,    36864, 0x5ffa86cc
0,          7,          7,        1,    36864, 0x75122807
0,          8,          8,        1,    36864, 0x27036a2b
0,          9,          9,        1,    36864, 0x00072654
0,         11,         11,        1,    36864, 0x49fab4fd
0,         12,         12,        1,    36864, 0x975a7545
0,         13,         13,        1,    36864, 0x9b080a2f
0,         14,         14,        1,    36864, 0x78db960e
0,         15,         15,        1,    36864, 0xd7a928d4
0,         16,         16,        1,    36864, 0x0a83ba1b
0,         17,         17,        1,    36864, 0xad6bb30c
0,         18,         18,        1,    36864, 0xf6addb0d
0,         19,         19,        1,    36864, 0x00540a0a
0,         20,         20,        1,    36864, 0x049cc748
0,         21,         21,        1,    36864, 0x5b1e2291
0,         22,         22,        1,    36864, 0x2367706e
0,         23,         23,        1,    36864, 0x88ef6b11
0,         24,         24,        1,    36864, 0x85b73230
0,         25,         25,        1,    36864, 0xe46cd522
0,         26,         26,        1,    36864, 0x98489c05
0,         27,         27,        1,    36864, 0x7e439564
0,         28,         28,        1,    36864, 0x71330799
0,         29,         29,        1,    36864, 0x81a6239e
0,         30,         30,        1,    36864, 0x8005a302
0,         31,         31,        1,    36864, 0xdf132e3f
0,         32,         32,        1,    36864, 0x2a1d00de
0,         33,         33,        1,    36864, 0x7bb57e14
0,         34,         34,        1,    36864, 0xf2a637cf
0,         35,         35,        1,    36864, 0xae6f6916
0,         36,         36,        1,    36864, 0x2f1d4763
0,         37,         37,        1,    36864, 0xa4e1145e
0,         38,         38,        1,    36864, 0xc1644392
0,         39,         39,        1,    36864, 0x21853537
0,         40,         40,        1,    36864, 0x0bc45bac
0,         41,         41,        1,    36864, 0x84ccb8ee
0,         42,         42,        1,    36864, 0x65de651c
0,         43,         43,        1,    36864, 0x33ff027e
0,         44,         44,        1,    36864, 0xefe47056
0,         45,         45,        1,    36864, 0x8952b47c
0,         46,         46,        1,    36864, 0x78730fcf
0,         47,         47,        1,    36864, 0x14bae79f
0,         48,         48,        1,    36864, 0x53230fbe
0,         49,         49,        1,    36864, 0x15b0b245
0,         50,         50,        1,    36864, 0x45fbd155
0,         51,         51,        1,    36864, 0x41cfbac4
0,         52,         52,        1,    36864, 0x0d635d61
0,         53,         53,        1,    36864, 0x55aa8d3c
0,         54,         54,        1,    36864, 0x8f02fbaf
0,         55,         55,        1,    36864, 0xb17fac3f
0,         56,         56,        1,    36864, 0xc12627f9
0,         57,         57,        1,    36864, 0xa5971e4a
0,         58,         58,        1,    36864, 0x3677abfe
